# This file uses centimeters as units for non-parametric coordinates.

mtllib tille.mtl
v 0.000000 33.455292 -2.721700
v 0.000000 33.455292 2.721700
v -10.363710 11.810202 2.177414
v -9.744822 12.429091 2.721700
v 0.000000 12.429091 2.721700
v 0.000000 11.810202 2.177414
v -10.363710 11.810202 -2.177414
v -9.744822 12.429091 -2.721700
v 0.000000 11.810202 -2.177414
v 0.000000 12.429091 -2.721700
v -10.363710 33.455292 2.177414
v -9.744676 33.455292 2.721700
v 9.744822 12.429091 2.721700
v 10.363710 11.810202 2.177414
v 9.744676 33.455292 2.721700
v 10.363710 33.455292 2.177414
v -9.744676 33.455292 -2.721700
v -10.363710 33.455292 -2.177414
v 10.363710 33.455292 -2.177414
v 9.744676 33.455292 -2.721700
v 9.744822 12.429091 -2.721700
v 10.363710 11.810202 -2.177414
v 9.836345 35.950645 -2.177414
v 9.254772 35.709385 -2.721700
v 8.367294 38.201740 -2.177414
v 7.905274 37.777287 -2.721700
v 6.079195 39.988216 -2.177414
v 5.768136 39.445900 -2.721700
v 3.196022 41.135216 -2.177414
v 3.041146 40.530762 -2.721700
v 0.000000 40.911537 -2.721700
v 0.000000 41.530426 -2.177414
v -3.196022 41.135216 -2.177414
v -3.041145 40.530762 -2.721700
v -6.079192 39.988216 -2.177414
v -5.768130 39.445900 -2.721700
v -8.367292 38.201733 -2.177414
v -7.905273 37.777283 -2.721700
v -9.836336 35.950645 -2.177414
v -9.254771 35.709385 -2.721700
v 9.836345 35.950645 2.177414
v 9.254772 35.709385 2.721700
v 8.367294 38.201740 2.177414
v 7.905274 37.777287 2.721700
v 6.079195 39.988216 2.177414
v 5.768136 39.445900 2.721700
v 3.196022 41.135216 2.177414
v 3.041146 40.530762 2.721700
v 0.000000 40.911537 2.721700
v 0.000000 41.530426 2.177414
v -3.196022 41.135216 2.177414
v -3.041145 40.530762 2.721700
v -6.079192 39.988216 2.177414
v -5.768130 39.445900 2.721700
v -8.367292 38.201733 2.177414
v -7.905273 37.777283 2.721700
v -9.836336 35.950645 2.177414
v -9.254771 35.709385 2.721700
v -9.836336 35.950645 0.000000
v -8.367292 38.201733 0.000000
v -6.079192 39.988216 0.000000
v -3.196022 41.135216 0.000000
v -0.000000 41.530426 0.000000
v 3.196022 41.135216 0.000000
v 6.079195 39.988216 0.000000
v 8.367294 38.201740 0.000000
v 9.836345 35.950645 0.000000
v 10.363710 33.455292 0.000000
v 10.363710 11.810202 0.000000
v -0.000000 11.810202 0.000000
v -10.363710 11.810202 0.000000
v -10.363710 33.455292 0.000000
v -17.712917 13.863069 -8.051572
v -17.712917 13.759237 -8.155401
v -17.816746 13.759237 -8.051572
v -17.931419 4.153571 -8.215693
v -17.816746 4.257401 -8.051572
v -17.712917 4.257401 -8.155401
v 16.447029 4.153571 -8.215693
v 16.228527 4.257400 -8.155401
v 16.332355 4.257400 -8.051572
v 16.228527 13.759237 -8.155401
v 16.228527 13.863069 -8.051572
v 16.332355 13.759237 -8.051572
v -27.486792 0.103829 -13.294193
v -27.486792 0.000000 -13.190365
v -27.590622 0.103829 -13.190365
v -27.477135 4.153571 -13.234526
v -27.486792 4.049742 -13.294193
v -27.590622 4.049742 -13.190365
v 26.002401 0.000000 -13.190365
v 26.002401 0.103829 -13.294193
v 26.106232 0.103829 -13.190365
v 25.992744 4.153571 -13.234526
v 26.106232 4.049742 -13.190365
v 26.002401 4.049742 -13.294193
v -17.816746 13.759237 0.000000
v -17.816746 4.257400 0.000000
v -17.931419 4.153571 0.000000
v 16.228523 13.863069 0.000000
v -17.712917 13.863069 0.000000
v 16.332355 13.759237 0.000000
v 16.332355 4.257400 0.000000
v 16.447029 4.153571 0.000000
v 26.002401 0.000000 0.000000
v -27.486792 0.000000 0.000000
v -27.590622 4.049742 0.000000
v -27.590622 0.103829 0.000000
v -27.477135 4.153571 0.000000
v 26.106232 0.103829 0.000000
v 26.106232 4.049742 0.000000
v 25.992743 4.153571 0.000000
v -17.712917 13.863069 8.051572
v -17.712917 13.759237 8.155401
v -17.816746 13.759237 8.051572
v -17.931419 4.153571 8.215693
v -17.816746 4.257401 8.051572
v -17.712917 4.257401 8.155401
v 16.447029 4.153571 8.215693
v 16.228527 4.257400 8.155401
v 16.332355 4.257400 8.051572
v 16.228527 13.759237 8.155401
v 16.228527 13.863069 8.051572
v 16.332355 13.759237 8.051572
v -27.486792 0.103829 13.294193
v -27.486792 0.000000 13.190365
v -27.590622 0.103829 13.190365
v -27.477135 4.153571 13.234526
v -27.486792 4.049742 13.294193
v -27.590622 4.049742 13.190365
v 26.002401 0.000000 13.190365
v 26.002401 0.103829 13.294193
v 26.106232 0.103829 13.190365
v 25.992744 4.153571 13.234526
v 26.106232 4.049742 13.190365
v 26.002401 4.049742 13.294193
vt 0.486934 0.575853
vt 0.486930 0.045794
vt 0.722408 0.045794
vt 0.722408 0.575853
vt 0.230582 0.032580
vt 0.024592 0.032580
vt 0.024595 0.496260
vt 0.230582 0.496260
vt 0.011510 0.018932
vt 0.230582 0.018932
vt 0.722408 0.030192
vt 0.471975 0.030192
vt 0.972842 0.575853
vt 0.972842 0.030192
vt 0.449653 0.018932
vt 0.449653 0.496260
vt 0.011510 0.496260
vt 0.471975 0.575853
vt 0.436568 0.496260
vt 0.436571 0.032580
vt 0.957887 0.045794
vt 0.957884 0.575853
vt 0.438506 0.551289
vt 0.407452 0.600931
vt 0.924600 0.695508
vt 0.960098 0.638760
vt 0.359086 0.640327
vt 0.869309 0.740545
vt 0.298140 0.665621
vt 0.799639 0.769460
vt 0.230582 0.674337
vt 0.722408 0.779423
vt 0.163023 0.665621
vt 0.645178 0.769460
vt 0.102078 0.640327
vt 0.575508 0.740545
vt 0.053711 0.600931
vt 0.520217 0.695508
vt 0.022658 0.551289
vt 0.484719 0.638760
vt 0.034951 0.545968
vt 0.063477 0.591571
vt 0.108653 0.628368
vt 0.166297 0.652292
vt 0.230582 0.660689
vt 0.294866 0.652292
vt 0.352510 0.628368
vt 0.397686 0.591571
vt 0.426212 0.545968
vt 0.722408 0.763821
vt 0.648921 0.754222
vt 0.583025 0.726873
vt 0.531382 0.684808
vt 0.498772 0.632678
vt 0.946045 0.632678
vt 0.913435 0.684808
vt 0.861792 0.726873
vt 0.795896 0.754222
vt 0.781992 0.939651
vt 0.595914 0.939651
vt 0.595914 0.861461
vt 0.781991 0.861461
vt 0.409837 0.861461
vt 0.409837 0.939651
vt 0.798468 0.978187
vt 0.409837 0.978187
vt 0.409837 0.899997
vt 0.798468 0.899997
vt 0.843271 0.899998
vt 0.843271 0.978187
vt 0.883689 0.899997
vt 0.883689 0.978187
vt 0.915765 0.899997
vt 0.915765 0.978187
vt 0.798468 0.896569
vt 0.409837 0.896569
vt 0.409837 0.818379
vt 0.798468 0.818379
vt 0.843271 0.896569
vt 0.843271 0.818379
vt 0.883689 0.896569
vt 0.883689 0.818379
vt 0.915765 0.896569
vt 0.915765 0.818379
vt 0.015755 0.857944
vt 0.080898 0.857944
vt 0.080898 0.956337
vt 0.015756 0.956337
vt 0.153110 0.857944
vt 0.153110 0.956337
vt 0.225321 0.857944
vt 0.225321 0.956337
vt 0.290464 0.857944
vt 0.290464 0.956337
vt 0.843271 0.855051
vt 0.883689 0.855051
vt 0.290464 0.910189
vt 0.915765 0.855051
vt 0.225321 0.910189
vt 0.153110 0.910189
vt 0.080898 0.910189
vt 0.915765 0.941515
vt 0.015755 0.910189
vt 0.883689 0.941515
vt 0.843271 0.941515
vt 0.798468 0.941515
vt 0.409837 0.898133
vt 0.409837 0.941515
vt 0.595914 0.898133
vt 0.409837 0.855051
vt 0.781992 0.898133
vt 0.798468 0.855051
vt 0.642133 0.912621
vt 0.493272 0.913507
vt 0.492621 0.806156
vt 0.584945 0.805671
vt 0.747969 0.203646
vt 0.748599 0.804825
vt 0.692125 0.697540
vt 0.691541 0.311012
vt 0.581618 0.202650
vt 0.489303 0.203812
vt 0.487735 0.096471
vt 0.636576 0.094360
vt 0.583074 0.313658
vt 0.690057 0.313438
vt 0.690858 0.695052
vt 0.584116 0.695271
vt 0.580996 0.311805
vt 0.490565 0.312490
vt 0.489390 0.205621
vt 0.579999 0.204797
vt 0.795617 0.203559
vt 0.943958 0.203547
vt 0.944024 0.804944
vt 0.795752 0.804956
vt 0.749869 0.804956
vt 0.749426 0.203559
vt 0.793886 0.203550
vt 0.794166 0.804946
vt 0.582566 0.695293
vt 0.581255 0.313571
vt 0.582414 0.696846
vt 0.583960 0.696553
vt 0.584823 0.803262
vt 0.583213 0.803707
vt 0.581633 0.205208
vt 0.582561 0.312032
vt 0.490610 0.314162
vt 0.641795 0.958443
vt 0.642027 0.959995
vt 0.493569 0.961233
vt 0.493559 0.959580
vt 0.643355 0.958627
vt 0.641488 0.914216
vt 0.643044 0.913981
vt 0.635207 0.048491
vt 0.636754 0.048272
vt 0.637418 0.092926
vt 0.635852 0.092738
vt 0.487663 0.094758
vt 0.635397 0.046928
vt 0.492604 0.804344
vt 0.491983 0.697466
vt 0.491982 0.695794
vt 0.493287 0.915220
vt 0.486985 0.050403
vt 0.486949 0.048751
vt 0.344414 0.914415
vt 0.400297 0.806752
vt 0.234349 0.205046
vt 0.290728 0.312360
vt 0.291163 0.698889
vt 0.234718 0.806225
vt 0.396980 0.204863
vt 0.338882 0.098570
vt 0.398600 0.314671
vt 0.399564 0.696285
vt 0.292616 0.696469
vt 0.291934 0.314854
vt 0.400137 0.313399
vt 0.398792 0.206675
vt 0.187272 0.204880
vt 0.187125 0.806277
vt 0.038788 0.806218
vt 0.039007 0.204821
vt 0.233284 0.806306
vt 0.188843 0.806290
vt 0.188845 0.204894
vt 0.233117 0.204909
vt 0.400065 0.314763
vt 0.401342 0.696270
vt 0.401550 0.697856
vt 0.401993 0.804745
vt 0.400376 0.804320
vt 0.399993 0.697595
vt 0.398607 0.313746
vt 0.397204 0.207137
vt 0.345321 0.960239
vt 0.345109 0.961794
vt 0.343764 0.960442
vt 0.343525 0.915793
vt 0.345086 0.916008
vt 0.338756 0.052810
vt 0.339477 0.097009
vt 0.337926 0.097271
vt 0.337188 0.052640
vt 0.338506 0.051265
vn -0.048580 0.001137 0.998819
vn -0.070278 -0.033118 0.996978
vn 0.000000 -0.025912 0.999664
vn -0.000000 0.000000 1.000000
vn 0.000000 -0.025912 -0.999664
vn -0.070278 -0.033118 -0.996978
vn -0.048580 0.001137 -0.998819
vn 0.000000 0.000000 -1.000000
vn -0.886165 -0.423447 -0.188162
vn 0.000000 -0.976248 -0.216656
vn 0.000000 -1.000000 0.000000
vn -0.901944 -0.431853 0.000000
vn 0.999761 0.021841 0.000000
vn 0.901944 -0.431853 0.000000
vn 0.886165 -0.423447 -0.188162
vn 0.975895 0.020875 -0.217241
vn -0.975895 0.020876 -0.217240
vn -0.999761 0.021841 0.000000
vn 0.048580 0.001137 -0.998819
vn 0.070278 -0.033118 -0.996978
vn 0.070278 -0.033118 0.996978
vn 0.048580 0.001137 0.998819
vn 0.902735 0.380085 -0.201506
vn 0.716478 0.666878 -0.204775
vn 0.732072 0.681227 0.000000
vn 0.921780 0.387713 0.000000
vn 0.482639 0.850977 -0.207117
vn 0.493406 0.869799 0.000000
vn 0.240538 0.948033 -0.208268
vn 0.245897 0.969296 0.000000
vn 0.000000 0.978032 -0.208455
vn 0.000000 1.000000 0.000000
vn -0.240538 0.948032 -0.208269
vn -0.245897 0.969296 0.000000
vn -0.482639 0.850977 -0.207118
vn -0.493407 0.869799 0.000000
vn -0.716479 0.666877 -0.204775
vn -0.732072 0.681227 0.000000
vn -0.902735 0.380086 -0.201505
vn -0.921780 0.387713 0.000000
vn -0.026241 0.011107 -0.999594
vn -0.022006 0.020504 -0.999548
vn -0.015651 0.027618 -0.999496
vn -0.008125 0.031998 -0.999455
vn 0.000000 0.033570 -0.999436
vn 0.008125 0.031998 -0.999455
vn 0.015651 0.027618 -0.999496
vn 0.022006 0.020504 -0.999548
vn 0.026241 0.011107 -0.999594
vn -0.000000 0.033570 0.999436
vn -0.008125 0.031998 0.999455
vn -0.015651 0.027618 0.999496
vn -0.022006 0.020504 0.999548
vn -0.026241 0.011107 0.999594
vn 0.026241 0.011107 0.999594
vn 0.022005 0.020504 0.999548
vn 0.015651 0.027618 0.999496
vn 0.008125 0.031998 0.999455
vn -0.886165 -0.423447 0.188162
vn 0.000000 -0.976248 0.216656
vn -0.975895 0.020876 0.217240
vn 0.886165 -0.423447 0.188162
vn -0.902735 0.380085 0.201505
vn 0.975895 0.020875 0.217241
vn 0.902735 0.380085 0.201507
vn 0.716478 0.666878 0.204775
vn 0.482638 0.850977 0.207117
vn 0.240538 0.948033 0.208268
vn -0.000000 0.978032 0.208454
vn -0.240538 0.948033 0.208268
vn -0.482639 0.850977 0.207118
vn -0.716479 0.666877 0.204775
vn -0.007885 0.999140 -0.040710
vn -0.013205 0.999913 0.000000
vn -0.008174 0.999967 -0.000000
vn -0.000804 0.999997 -0.002238
vn 0.007885 0.999140 -0.040710
vn 0.000804 0.999997 -0.002237
vn 0.008174 0.999967 0.000000
vn 0.013205 0.999913 0.000000
vn 0.003028 0.010787 -0.999937
vn 0.003006 0.010533 -0.999940
vn -0.003006 0.010533 -0.999940
vn -0.003028 0.010787 -0.999937
vn 0.999863 0.010717 -0.012639
vn 0.999942 0.010809 0.000000
vn 0.999927 0.012058 0.000000
vn 0.999756 0.018144 -0.012582
vn 0.001927 -0.999968 -0.007800
vn 0.001937 -0.999998 0.000000
vn -0.001937 -0.999998 0.000000
vn -0.001927 -0.999968 -0.007800
vn -0.001910 0.013980 -0.999901
vn 0.001910 0.013980 -0.999901
vn 0.001904 -0.025598 -0.999671
vn -0.001904 -0.025598 -0.999671
vn -0.003024 0.999915 -0.012705
vn 0.003024 0.999915 -0.012705
vn -0.999863 0.010717 -0.012639
vn -0.999756 0.018143 -0.012582
vn 0.003050 0.999995 0.000000
vn -0.999645 -0.025499 -0.007675
vn -0.999672 -0.025630 0.000000
vn -0.999437 0.032679 -0.007623
vn 0.999645 -0.025499 -0.007675
vn 0.999437 0.032678 -0.007623
vn 0.999606 0.028058 0.000000
vn -0.999927 0.012058 -0.000000
vn -0.999942 0.010808 0.000000
vn -0.003050 0.999995 0.000000
vn -0.999606 0.028058 0.000000
vn 0.999672 -0.025630 0.000000
vn -0.007885 0.999140 0.040710
vn -0.000804 0.999997 0.002238
vn 0.007885 0.999140 0.040710
vn 0.000804 0.999997 0.002237
vn 0.003028 0.010787 0.999937
vn -0.003028 0.010787 0.999937
vn -0.003006 0.010533 0.999940
vn 0.003006 0.010533 0.999940
vn 0.999863 0.010717 0.012639
vn 0.999756 0.018143 0.012582
vn 0.001927 -0.999968 0.007800
vn -0.001927 -0.999968 0.007800
vn -0.001910 0.013980 0.999901
vn -0.001904 -0.025598 0.999671
vn 0.001904 -0.025598 0.999671
vn 0.001910 0.013980 0.999901
vn 0.003024 0.999915 0.012705
vn -0.003024 0.999915 0.012705
vn -0.999863 0.010717 0.012639
vn -0.999756 0.018144 0.012582
vn -0.999645 -0.025499 0.007675
vn -0.999437 0.032678 0.007623
vn 0.999645 -0.025499 0.007675
vn 0.999437 0.032678 0.007623
s 1
g tille done_3d
usemtl lambert18SG
f 12/1/1 4/2/2 5/3/3 2/4/4
f 10/5/5 8/6/6 17/7/7 1/8/8
f 7/59/9 9/60/10 70/109/11 71/111/12
f 68/106/13 69/108/14 22/67/15 19/68/16
f 18/75/17 7/76/9 71/110/12 72/112/18
f 1/8/8 20/19/19 21/20/20 10/5/5
f 69/107/14 70/109/11 9/60/10 22/64/15
f 2/4/4 5/3/3 13/21/21 15/22/22
f 23/69/23 25/71/24 66/104/25 67/105/26
f 25/71/24 27/73/27 65/102/28 66/104/25
f 27/85/27 29/86/29 64/101/30 65/103/28
f 29/86/29 32/89/31 63/100/32 64/101/30
f 32/89/31 33/91/33 62/99/34 63/100/32
f 33/91/33 35/93/35 61/97/36 62/99/34
f 35/83/35 37/81/37 60/96/38 61/98/36
f 37/81/37 39/79/39 59/95/40 60/96/38
f 39/79/39 18/75/17 72/112/18 59/95/40
f 19/68/16 23/69/23 67/105/26 68/106/13
f 17/7/7 40/41/41 38/42/42 36/43/43 34/44/44 31/45/45 1/8/8
f 31/45/45 30/46/46 28/47/47 26/48/48 24/49/49 20/19/19 1/8/8
f 2/4/4 49/50/50 52/51/51 54/52/52 56/53/53 58/54/54 12/1/1
f 2/4/4 15/22/22 42/55/55 44/56/56 46/57/57 48/58/58 49/50/50
f 4/2/2 3/12/59 6/11/60 5/3/3
f 3/12/59 4/2/2 12/1/1 11/18/61
f 5/3/3 6/11/60 14/14/62 13/21/21
f 8/6/6 7/9/9 18/17/17 17/7/7
f 7/9/9 8/6/6 10/5/5 9/10/10
f 9/10/10 10/5/5 21/20/20 22/15/15
f 11/18/61 12/1/1 58/54/54 57/40/63
f 13/21/21 14/14/62 16/13/64 15/22/22
f 15/22/22 16/13/64 41/26/65 42/55/55
f 17/7/7 18/17/17 39/39/39 40/41/41
f 19/16/16 20/19/19 24/49/49 23/23/23
f 20/19/19 19/16/16 22/15/15 21/20/20
f 23/23/23 24/49/49 26/48/48 25/24/24
f 25/24/24 26/48/48 28/47/47 27/27/27
f 27/27/27 28/47/47 30/46/46 29/29/29
f 29/29/29 30/46/46 31/45/45 32/31/31
f 32/31/31 31/45/45 34/44/44 33/33/33
f 33/33/33 34/44/44 36/43/43 35/35/35
f 35/35/35 36/43/43 38/42/42 37/37/37
f 37/37/37 38/42/42 40/41/41 39/39/39
f 42/55/55 41/26/65 43/25/66 44/56/56
f 44/56/56 43/25/66 45/28/67 46/57/57
f 46/57/57 45/28/67 47/30/68 48/58/58
f 48/58/58 47/30/68 50/32/69 49/50/50
f 49/50/50 50/32/69 51/34/70 52/51/51
f 52/51/51 51/34/70 53/36/71 54/52/52
f 54/52/52 53/36/71 55/38/72 56/53/53
f 56/53/53 55/38/72 57/40/63 58/54/54
f 60/96/38 59/95/40 57/80/63 55/82/72
f 61/98/36 60/96/38 55/82/72 53/84/71
f 62/99/34 61/97/36 53/94/71 51/92/70
f 63/100/32 62/99/34 51/92/70 50/90/69
f 64/101/30 63/100/32 50/90/69 47/87/68
f 65/103/28 64/101/30 47/87/68 45/88/67
f 66/104/25 65/102/28 45/74/67 43/72/66
f 67/105/26 66/104/25 43/72/66 41/70/65
f 68/106/13 67/105/26 41/70/65 16/65/64
f 16/65/64 14/66/62 69/108/14 68/106/13
f 14/63/62 6/61/60 70/109/11 69/107/14
f 71/111/12 70/109/11 6/61/60 3/62/59
f 72/112/18 71/110/12 3/77/59 11/78/61
f 59/95/40 72/112/18 11/78/61 57/80/63
s 5
usemtl lambert17SG
f 88/113/73 109/114/74 99/115/75 76/116/76
f 94/117/77 88/118/73 76/119/76 79/120/78
f 79/121/78 104/122/79 112/123/80 94/124/77
f 82/125/81 80/126/82 78/127/83 74/128/84
f 84/129/85 102/130/86 103/131/87 81/132/88
f 91/133/89 105/134/90 106/135/91 86/136/92
f 89/137/93 96/138/94 92/139/95 85/140/96
f 74/128/84 73/141/97 83/142/98 82/125/81
f 75/143/99 74/144/84 78/145/83 77/146/100
f 76/119/76 78/127/83 80/126/82 79/120/78
f 81/132/88 80/147/82 82/148/81 84/129/85
f 79/121/78 81/132/88 103/131/87 104/122/79
f 84/129/85 83/142/98 100/149/101 102/130/86
f 86/136/92 85/140/96 92/139/95 91/133/89
f 87/150/102 86/151/92 106/152/91 108/153/103
f 85/154/96 87/150/102 90/155/104 89/156/93
f 89/137/93 88/118/73 94/117/77 96/138/94
f 93/157/105 92/158/95 96/159/94 95/160/106
f 95/160/106 94/124/77 112/123/80 111/161/107
f 73/141/97 74/144/84 75/143/99
f 76/116/76 77/146/100 78/145/83
f 79/121/78 80/147/82 81/132/88
f 82/148/81 83/142/98 84/129/85
f 85/154/96 86/151/92 87/150/102
f 88/113/73 89/156/93 90/155/104
f 91/162/89 92/158/95 93/157/105
f 94/124/77 95/160/106 96/159/94
f 98/163/108 97/164/109 75/143/99 77/146/100
f 101/165/110 100/149/101 83/142/98 73/141/97
f 108/153/103 107/166/111 90/155/104 87/150/102
f 111/161/107 110/167/112 93/157/105 95/160/106
f 99/115/75 98/163/108 77/146/100 76/116/76
f 97/164/109 101/165/110 73/141/97 75/143/99
f 107/166/111 109/114/74 88/113/73 90/155/104
f 110/167/112 105/168/90 91/162/89 93/157/105
f 128/169/113 116/170/114 99/115/75 109/114/74
f 134/171/115 119/172/116 116/173/114 128/174/113
f 119/175/116 134/176/115 112/123/80 104/122/79
f 122/177/117 114/178/118 118/179/119 120/180/120
f 124/181/121 121/182/122 103/131/87 102/130/86
f 131/183/123 126/184/124 106/185/91 105/186/90
f 129/187/125 125/188/126 132/189/127 136/190/128
f 114/178/118 122/177/117 123/191/129 113/192/130
f 115/193/131 117/194/132 118/195/119 114/196/118
f 116/173/114 119/172/116 120/180/120 118/179/119
f 121/182/122 124/181/121 122/197/117 120/198/120
f 119/175/116 104/122/79 103/131/87 121/182/122
f 124/181/121 102/130/86 100/149/101 123/191/129
f 126/184/124 131/183/123 132/189/127 125/188/126
f 127/199/133 108/153/103 106/152/91 126/200/124
f 125/201/126 129/202/125 130/203/134 127/199/133
f 129/187/125 136/190/128 134/171/115 128/174/113
f 133/204/135 135/205/136 136/206/128 132/207/127
f 135/205/136 111/161/107 112/123/80 134/176/115
f 113/192/130 115/193/131 114/196/118
f 116/170/114 118/195/119 117/194/132
f 119/175/116 121/182/122 120/198/120
f 122/197/117 124/181/121 123/191/129
f 125/201/126 127/199/133 126/200/124
f 128/169/113 130/203/134 129/202/125
f 131/208/123 133/204/135 132/207/127
f 134/176/115 136/206/128 135/205/136
f 98/163/108 117/194/132 115/193/131 97/164/109
f 101/165/110 113/192/130 123/191/129 100/149/101
f 108/153/103 127/199/133 130/203/134 107/166/111
f 111/161/107 135/205/136 133/204/135 110/167/112
f 99/115/75 116/170/114 117/194/132 98/163/108
f 97/164/109 115/193/131 113/192/130 101/165/110
f 107/166/111 130/203/134 128/169/113 109/114/74
f 110/167/112 133/204/135 131/208/123 105/168/90
