# This file uses centimeters as units for non-parametric coordinates.

mtllib WaterGrass_02_v01_03.mtl
g default
v -4.117153 -0.322243 -0.027769
v 4.890288 -0.322243 -0.027769
v -3.822089 6.264237 0.010306
v 5.185351 6.264237 0.010306
v -4.117153 -0.321602 0.101003
v 4.890288 -0.321602 0.101003
v -3.822089 6.263597 0.268945
v 5.185351 6.263597 0.268945
v -4.546638 -0.304562 -0.763072
v 4.293403 -0.338643 0.965078
v -4.251575 6.280638 -0.595130
v 4.588466 6.246556 1.133020
v -4.474177 -0.298421 -1.074449
v 4.220941 -0.344783 1.276455
v -4.179114 6.286778 -0.906507
v 4.516005 6.240416 1.444397
v -4.479165 -0.344417 1.257857
v 4.225929 -0.298788 -1.055851
v -4.184102 6.240783 1.425799
v 4.520992 6.286411 -0.887909
v -4.550293 -0.338270 0.946173
v 4.297058 -0.304935 -0.744167
v -4.255230 6.246929 1.114115
v 4.592121 6.280265 -0.576225
v -2.438990 -0.302727 -0.856138
v 2.185754 -0.340478 1.058144
v -2.143927 6.282473 -0.688196
v 2.480818 6.244721 1.226086
v -2.388082 -0.296621 -1.165729
v 2.134846 -0.346584 1.367735
v -2.093019 6.288578 -0.997787
v 2.429909 6.238616 1.535677
v -1.714256 -0.342621 1.166800
v 1.461020 -0.300584 -0.964794
v -1.419192 6.242579 1.334742
v 1.756083 6.284616 -0.796853
v -1.720853 -0.336456 0.854195
v 1.467616 -0.306749 -0.652189
v -1.425789 6.248743 1.022137
v 1.762680 6.278451 -0.484247
v -4.117153 -0.322243 -0.027769
v 4.890288 -0.322243 -0.027769
v -3.822089 6.264237 0.010306
v 5.185351 6.264237 0.010306
v -4.117153 -0.321602 0.101003
v 4.890288 -0.321602 0.101003
v -3.822089 6.263597 0.268945
v 5.185351 6.263597 0.268945
v -4.546638 -0.304562 -0.763072
v 4.293403 -0.338643 0.965078
v -4.251575 6.280638 -0.595130
v 4.588466 6.246556 1.133020
v -4.474177 -0.298421 -1.074449
v 4.220941 -0.344783 1.276455
v -4.179114 6.286778 -0.906507
v 4.516005 6.240416 1.444397
v -4.479165 -0.344417 1.257857
v 4.225929 -0.298788 -1.055851
v -4.184102 6.240783 1.425799
v 4.520992 6.286411 -0.887909
v -4.550293 -0.338270 0.946173
v 4.297058 -0.304935 -0.744167
v -4.255230 6.246929 1.114115
v 4.592121 6.280265 -0.576225
v -2.438990 -0.302727 -0.856138
v 2.185754 -0.340478 1.058144
v -2.143927 6.282473 -0.688196
v 2.480818 6.244721 1.226086
v -2.388082 -0.296621 -1.165729
v 2.134846 -0.346584 1.367735
v -2.093019 6.288578 -0.997787
v 2.429909 6.238616 1.535677
v -1.714256 -0.342621 1.166800
v 1.461020 -0.300584 -0.964794
v -1.419192 6.242579 1.334742
v 1.756083 6.284616 -0.796853
v -1.720853 -0.336456 0.854195
v 1.467616 -0.306749 -0.652189
v -1.425789 6.248743 1.022137
v 1.762680 6.278451 -0.484247
vt 0.000000 0.000000
vt 1.000000 0.000000
vt 0.000000 0.993083
vt 1.000000 0.993083
vt 0.000000 0.000000
vt 1.000000 0.000000
vt 1.000000 0.993083
vt 0.000000 0.993083
vt 0.000000 0.000000
vt 1.000000 0.000000
vt 1.000000 0.993083
vt 0.000000 0.993083
vt 0.000000 0.000000
vt 1.000000 0.000000
vt 1.000000 0.993083
vt 0.000000 0.993083
vt 0.000000 0.000000
vt 1.000000 0.000000
vt 1.000000 0.993083
vt 0.000000 0.993083
vt 0.000000 0.000000
vt 1.000000 0.000000
vt 1.000000 0.993083
vt 0.000000 0.993083
vt 0.000000 0.000000
vt 0.588430 0.000000
vt 0.588430 0.993083
vt 0.000000 0.993083
vt 0.000000 0.000000
vt 0.588430 0.000000
vt 0.588430 0.993083
vt 0.000000 0.993083
vt 0.000000 0.000000
vt 0.391291 0.000000
vt 0.391291 0.993083
vt 0.000000 0.993083
vt 0.000000 0.000000
vt 0.391291 0.000000
vt 0.391291 0.993083
vt 0.000000 0.993083
vt 0.000000 0.000000
vt 1.000000 0.000000
vt 1.000000 0.993083
vt 0.000000 0.993083
vt 0.000000 0.000000
vt 1.000000 0.000000
vt 1.000000 0.993083
vt 0.000000 0.993083
vt 0.000000 0.000000
vt 1.000000 0.000000
vt 1.000000 0.993083
vt 0.000000 0.993083
vt 0.000000 0.000000
vt 1.000000 0.000000
vt 1.000000 0.993083
vt 0.000000 0.993083
vt 0.000000 0.000000
vt 1.000000 0.000000
vt 1.000000 0.993083
vt 0.000000 0.993083
vt 0.000000 0.000000
vt 1.000000 0.000000
vt 1.000000 0.993083
vt 0.000000 0.993083
vt 0.000000 0.000000
vt 0.588430 0.000000
vt 0.588430 0.993083
vt 0.000000 0.993083
vt 0.000000 0.000000
vt 0.588430 0.000000
vt 0.588430 0.993083
vt 0.000000 0.993083
vt 0.000000 0.000000
vt 0.391291 0.000000
vt 0.391291 0.993083
vt 0.000000 0.993083
vt 0.000000 0.000000
vt 0.391291 0.000000
vt 0.391291 0.993083
vt 0.000000 0.993083
vn 0.000000 0.000000 -1.000000
vn 0.000000 0.000000 -1.000000
vn 0.000000 0.000000 -1.000000
vn 0.000000 0.000000 -1.000000
vn 0.000000 0.019717 -0.999806
vn 0.000000 0.019717 -0.999806
vn 0.000000 0.019717 -0.999806
vn 0.000000 0.019717 -0.999806
vn 0.191895 0.019351 -0.981225
vn 0.191895 0.019351 -0.981225
vn 0.191895 0.019351 -0.981225
vn 0.191895 0.019351 -0.981225
vn 0.261046 0.019033 -0.965139
vn 0.261046 0.019033 -0.965139
vn 0.261046 0.019033 -0.965139
vn 0.261046 0.019033 -0.965139
vn -0.256916 0.019055 -0.966246
vn -0.256916 0.019055 -0.966246
vn -0.256916 0.019055 -0.966246
vn -0.256916 0.019055 -0.966246
vn -0.187697 0.019367 -0.982036
vn -0.187697 0.019367 -0.982036
vn -0.187697 0.019367 -0.982036
vn -0.187697 0.019367 -0.982036
vn 0.382517 0.018218 -0.923769
vn 0.382517 0.018218 -0.923769
vn 0.382517 0.018218 -0.923769
vn 0.382517 0.018218 -0.923769
vn 0.488767 0.017202 -0.872245
vn 0.488767 0.017202 -0.872245
vn 0.488767 0.017202 -0.872245
vn 0.488767 0.017202 -0.872245
vn -0.557441 0.016369 -0.830055
vn -0.557441 0.016369 -0.830055
vn -0.557441 0.016369 -0.830055
vn -0.557441 0.016369 -0.830055
vn -0.427241 0.017827 -0.903962
vn -0.427241 0.017827 -0.903962
vn -0.427241 0.017827 -0.903962
vn -0.427241 0.017827 -0.903962
vn 0.000000 -0.000000 1.000000
vn 0.000000 -0.000000 1.000000
vn 0.000000 -0.000000 1.000000
vn 0.000000 -0.000000 1.000000
vn 0.000000 -0.019717 0.999806
vn 0.000000 -0.019717 0.999806
vn 0.000000 -0.019717 0.999806
vn 0.000000 -0.019717 0.999806
vn -0.191895 -0.019351 0.981225
vn -0.191895 -0.019351 0.981225
vn -0.191895 -0.019351 0.981225
vn -0.191895 -0.019351 0.981225
vn -0.261046 -0.019033 0.965139
vn -0.261046 -0.019033 0.965139
vn -0.261046 -0.019033 0.965139
vn -0.261046 -0.019033 0.965139
vn 0.256916 -0.019055 0.966246
vn 0.256916 -0.019055 0.966246
vn 0.256916 -0.019055 0.966246
vn 0.256916 -0.019055 0.966246
vn 0.187697 -0.019367 0.982036
vn 0.187697 -0.019367 0.982036
vn 0.187697 -0.019367 0.982036
vn 0.187697 -0.019367 0.982036
vn -0.382517 -0.018218 0.923769
vn -0.382517 -0.018218 0.923769
vn -0.382517 -0.018218 0.923769
vn -0.382517 -0.018218 0.923769
vn -0.488767 -0.017202 0.872245
vn -0.488767 -0.017202 0.872245
vn -0.488767 -0.017202 0.872245
vn -0.488767 -0.017202 0.872245
vn 0.557441 -0.016369 0.830055
vn 0.557441 -0.016369 0.830055
vn 0.557441 -0.016369 0.830055
vn 0.557441 -0.016369 0.830055
vn 0.427241 -0.017827 0.903962
vn 0.427241 -0.017827 0.903962
vn 0.427241 -0.017827 0.903962
vn 0.427241 -0.017827 0.903962
s 1
g polySurface3
usemtl lambert2SG
f 1/1/1 3/3/2 2/2/3
f 2/2/3 3/3/2 4/4/4
s 2
f 5/5/5 7/8/6 6/6/7
f 6/6/7 7/8/6 8/7/8
s 3
f 9/9/9 11/12/10 10/10/11
f 10/10/11 11/12/10 12/11/12
s 4
f 13/13/13 15/16/14 14/14/15
f 14/14/15 15/16/14 16/15/16
s 5
f 17/17/17 19/20/18 18/18/19
f 18/18/19 19/20/18 20/19/20
s 6
f 21/21/21 23/24/22 22/22/23
f 22/22/23 23/24/22 24/23/24
s 7
f 25/25/25 27/28/26 26/26/27
f 26/26/27 27/28/26 28/27/28
s 8
f 29/29/29 31/32/30 30/30/31
f 30/30/31 31/32/30 32/31/32
s 9
f 33/33/33 35/36/34 34/34/35
f 34/34/35 35/36/34 36/35/36
s 10
f 37/37/37 39/40/38 38/38/39
f 38/38/39 39/40/38 40/39/40
s 11
f 41/41/41 42/42/42 43/44/43
f 43/44/43 42/42/42 44/43/44
s 12
f 45/45/45 46/46/46 47/48/47
f 47/48/47 46/46/46 48/47/48
s 13
f 49/49/49 50/50/50 51/52/51
f 51/52/51 50/50/50 52/51/52
s 14
f 53/53/53 54/54/54 55/56/55
f 55/56/55 54/54/54 56/55/56
s 15
f 57/57/57 58/58/58 59/60/59
f 59/60/59 58/58/58 60/59/60
s 16
f 61/61/61 62/62/62 63/64/63
f 63/64/63 62/62/62 64/63/64
s 17
f 65/65/65 66/66/66 67/68/67
f 67/68/67 66/66/66 68/67/68
s 18
f 69/69/69 70/70/70 71/72/71
f 71/72/71 70/70/70 72/71/72
s 19
f 73/73/73 74/74/74 75/76/75
f 75/76/75 74/74/74 76/75/76
s 20
f 77/77/77 78/78/78 79/80/79
f 79/80/79 78/78/78 80/79/80
